<svg viewBox="0 0 200 200" xmlns="http://www.w3.org/2000/svg">
    <defs>
        <!-- Warm gradient for background -->
        <radialGradient id="backgroundGradient" cx="50%" cy="30%" r="70%">
            <stop offset="0%" style="stop-color:#4F46E5;stop-opacity:1" />
            <stop offset="100%" style="stop-color:#06B6D4;stop-opacity:1" />
        </radialGradient>

        <!-- Modern shadow -->
        <filter id="modernShadow" x="-50%" y="-50%" width="200%" height="200%">
            <feDropShadow dx="0" dy="6" stdDeviation="12" flood-color="#000000" flood-opacity="0.25"/>
        </filter>

        <!-- Gradient for the plane -->
        <linearGradient id="planeGradient" x1="0%" y1="0%" x2="100%" y2="0%">
            <stop offset="0%" style="stop-color:#FFFFFF;stop-opacity:1" />
            <stop offset="100%" style="stop-color:#F1F5F9;stop-opacity:1" />
        </linearGradient>

        <!-- Drop shadow filter -->
        <filter id="dropShadow" x="-50%" y="-50%" width="200%" height="200%">
            <feDropShadow dx="0" dy="4" stdDeviation="8" flood-color="#000000" flood-opacity="0.15"/>
        </filter>

        <!-- Glow effect for route line -->
        <filter id="glow" x="-50%" y="-50%" width="200%" height="200%">
            <feGaussianBlur stdDeviation="2" result="coloredBlur"/>
            <feMerge>
                <feMergeNode in="coloredBlur"/>
                <feMergeNode in="SourceGraphic"/>
            </feMerge>
        </filter>
    </defs>

    <!-- App-style corner accent -->
    <circle cx="40" cy="40" r="8" fill="#FFFFFF" opacity="0.2"/>
    <circle cx="40" cy="40" r="4" fill="#FFFFFF" opacity="0.4"/>
    <!-- Modern rounded square background -->
    <rect x="20" y="20" width="160" height="160" rx="40" fill="url(#backgroundGradient)" filter="url(#modernShadow)"/>
    <!-- Modern geometric accents -->
    <g opacity="0.15">
        <rect x="155" y="25" width="3" height="15" rx="1.5" fill="#FFFFFF"/>
        <rect x="25" y="155" width="15" height="3" rx="1.5" fill="#FFFFFF"/>
        <polygon points="170,45 175,40 180,45 175,50" fill="#FFFFFF"/>
    </g>

    <!-- Travel route path (curved dashed line) -->
    <path d="M 40 120 Q 70 80 100 100 T 160 80"
          stroke="#FFFFFF"
          stroke-width="3"
          stroke-dasharray="8,4"
          fill="none"
          opacity="0.8"
          filter="url(#glow)"/>

    <!-- Location pins -->
    <g transform="translate(40,120)">
        <circle cx="0" cy="-8" r="8" fill="#EF4444"/>
        <circle cx="0" cy="-8" r="4" fill="#FFFFFF"/>
    </g>

    <g transform="translate(160,80)">
        <circle cx="0" cy="-8" r="8" fill="#10B981"/>
        <circle cx="0" cy="-8" r="4" fill="#FFFFFF"/>
    </g>

    <!-- Airplane icon -->
    <g transform="translate(100,100) rotate(15)">
        <!-- Plane body -->
        <ellipse cx="0" cy="0" rx="20" ry="4" fill="url(#planeGradient)" stroke="#E2E8F0" stroke-width="1"/>

        <!-- Wings -->
        <ellipse cx="-5" cy="0" rx="8" ry="12" fill="url(#planeGradient)" stroke="#E2E8F0" stroke-width="1"/>

        <!-- Tail -->
        <ellipse cx="15" cy="0" rx="4" ry="8" fill="url(#planeGradient)" stroke="#E2E8F0" stroke-width="1"/>

        <!-- Wing details -->
        <line x1="-10" y1="-8" x2="-2" y2="-2" stroke="#CBD5E1" stroke-width="1" opacity="0.6"/>
        <line x1="-10" y1="8" x2="-2" y2="2" stroke="#CBD5E1" stroke-width="1" opacity="0.6"/>
    </g>

    <!-- Decorative travel elements -->
    <!-- Small compass rose -->
    <g transform="translate(140,140)" opacity="0.6">
        <circle cx="0" cy="0" r="12" fill="none" stroke="#FFFFFF" stroke-width="2"/>
        <line x1="0" y1="-8" x2="0" y2="8" stroke="#FFFFFF" stroke-width="1"/>
        <line x1="-8" y1="0" x2="8" y2="0" stroke="#FFFFFF" stroke-width="1"/>
        <polygon points="0,-8 3,-3 0,-5 -3,-3" fill="#FFFFFF"/>
    </g>

    <!-- Calendar/planning icon -->
    <g transform="translate(60,60)" opacity="0.4">
        <rect x="-6" y="-6" width="12" height="12" rx="2" fill="#FFFFFF" stroke="#E2E8F0" stroke-width="1"/>
        <line x1="-3" y1="-3" x2="3" y2="-3" stroke="#4F46E5" stroke-width="1"/>
        <line x1="-3" y1="0" x2="3" y2="0" stroke="#4F46E5" stroke-width="1"/>
        <line x1="-3" y1="3" x2="0" y2="3" stroke="#4F46E5" stroke-width="1"/>
    </g>

    <!-- Subtle sparkle effects -->
    <g opacity="0.3">
        <circle cx="150" cy="50" r="2" fill="#FFFFFF"/>
        <circle cx="50" cy="150" r="1.5" fill="#FFFFFF"/>
        <circle cx="170" cy="130" r="1" fill="#FFFFFF"/>
    </g>
</svg>